<?xml version="1.0" standalone="no"?>
<!DOCTYPE svg PUBLIC "-//W3C//DTD SVG 20010904//EN"
 "http://www.w3.org/TR/2001/REC-SVG-20010904/DTD/svg10.dtd">
<svg version="1.0" xmlns="http://www.w3.org/2000/svg"
 width="860.000000pt" height="319.000000pt" viewBox="0 0 860.000000 319.000000"
 preserveAspectRatio="xMidYMid meet">

<g transform="translate(0.000000,319.000000) scale(0.100000,-0.100000)"
fill="#000000" stroke="none">
<path d="M2995 2647 c-8 -21 -47 -139 -85 -265 -38 -125 -182 -593 -320 -1041
-224 -730 -248 -817 -237 -840 15 -31 43 -38 157 -40 94 -1 115 6 106 36 -4
13 104 375 284 957 273 879 312 1014 302 1044 -2 8 -34 12 -103 12 -113 0
-109 -6 -88 104 12 69 5 83 -16 33z"/>
<path d="M1362 2336 c-235 -45 -390 -207 -468 -486 -40 -143 -21 -130 -193
-130 l-149 0 -15 -62 c-45 -186 -49 -213 -37 -299 35 -256 102 -424 230 -577
114 -136 292 -247 475 -294 79 -20 113 -23 290 -23 227 0 311 13 453 71 181
72 317 195 397 358 64 130 105 303 75 321 -5 3 -10 17 -10 31 0 27 -21 32 -40
9 -10 -12 -43 -15 -174 -15 -115 0 -167 -4 -178 -12 -9 -7 -29 -42 -43 -78
-59 -142 -140 -220 -275 -266 -42 -15 -84 -19 -175 -19 -107 0 -129 4 -200 29
-105 38 -164 76 -224 143 -91 102 -134 219 -151 419 -10 117 1 291 26 394 56
230 199 379 411 426 141 31 352 7 441 -52 32 -21 37 -13 12 19 -63 79 -302
126 -478 93z"/>
<path d="M4062 2326 c-235 -45 -390 -207 -468 -486 -40 -143 -21 -130 -193
-130 l-149 0 -15 -62 c-45 -186 -49 -213 -37 -299 35 -256 102 -424 230 -577
114 -136 292 -247 475 -294 79 -20 113 -23 290 -23 227 0 311 13 453 71 181
72 317 195 397 358 64 130 105 303 75 321 -5 3 -10 17 -10 31 0 27 -21 32 -40
9 -10 -12 -43 -15 -174 -15 -115 0 -167 -4 -178 -12 -9 -7 -29 -42 -43 -78
-59 -142 -140 -220 -275 -266 -42 -15 -84 -19 -175 -19 -107 0 -129 4 -200 29
-105 38 -164 76 -224 143 -91 102 -134 219 -151 419 -10 117 1 291 26 394 56
230 199 379 411 426 141 31 352 7 441 -52 32 -21 37 -13 12 19 -63 79 -302
126 -478 93z"/>
<path d="M2366 2190 c12 -124 13 -158 1 -175 -12 -15 -28 -17 -148 -13 -114 3
-142 7 -187 27 -29 13 -55 21 -59 17 -11 -10 77 -84 121 -101 32 -12 73 -15
186 -13 l145 3 3 33 c4 35 -26 165 -51 222 l-15 35 4 -35z"/>
<path d="M5066 2180 c12 -124 13 -158 1 -175 -12 -15 -28 -17 -148 -13 -114 3
-142 7 -187 27 -29 13 -55 21 -59 17 -11 -10 77 -84 121 -101 32 -12 73 -15
186 -13 l145 3 3 33 c4 35 -26 165 -51 222 l-15 35 4 -35z"/>
<path d="M6016 1972 c-2 -4 -8 -48 -11 -97 -4 -50 -11 -107 -16 -127 l-10 -38
-73 0 -73 0 -12 -42 c-7 -23 -15 -75 -18 -115 -8 -106 -1 -103 -261 -103 -236
0 -260 -5 -297 -60 -11 -16 -23 -30 -27 -30 -5 0 -8 -33 -8 -72 0 -71 1 -73
33 -93 29 -18 55 -20 277 -25 l245 -5 3 -258 c2 -209 5 -257 16 -257 7 0 19
-7 26 -15 11 -13 35 -15 134 -13 l121 3 5 260 c3 143 9 266 13 273 6 9 70 12
262 12 217 0 256 2 269 16 22 22 23 221 1 250 -8 10 -15 27 -15 37 0 23 -13
22 -35 -3 -17 -19 -31 -20 -246 -20 -125 0 -233 2 -241 5 -10 4 -12 51 -10
234 3 195 1 234 -13 260 -15 31 -29 39 -39 23z"/>
<path d="M7476 1972 c-2 -4 -8 -48 -11 -97 -4 -50 -11 -107 -16 -127 l-10 -38
-73 0 -73 0 -12 -42 c-7 -23 -15 -75 -18 -115 -8 -106 -1 -103 -261 -103 -236
0 -260 -5 -297 -60 -11 -16 -23 -30 -27 -30 -5 0 -8 -33 -8 -72 0 -71 1 -73
33 -93 29 -18 55 -20 277 -25 l245 -5 3 -258 c2 -209 5 -257 16 -257 7 0 19
-7 26 -15 11 -13 35 -15 134 -13 l121 3 5 260 c3 143 9 266 13 273 6 9 70 12
262 12 217 0 256 2 269 16 22 22 23 221 1 250 -8 10 -15 27 -15 37 0 23 -13
22 -35 -3 -17 -19 -31 -20 -246 -20 -125 0 -233 2 -241 5 -10 4 -12 51 -10
234 3 195 1 234 -13 260 -15 31 -29 39 -39 23z"/>
</g>
</svg>
